# xmcd
#
# Track frame offsets: 
#        150
#        17137
#        29125
#        57625
#        82247
#        102110
#        118375
#        136552
#        158345
#
# Disc length: 2530 seconds
#
# Revision: 2
# Processed by: cddbd v1.5.2PL0 Copyright (c) Steve Scherf et al.
# Submitted via: ExactAudioCopy v0.99pb3
#
DISCID=7609e009
DTITLE=Chris Cain Band - Late Night City Blues
DYEAR=1995
DGENRE=Blues
TTITLE0=Wake Up And Smell The Coffee
TTITLE1=I Need A Woman To Treat Me Right
TTITLE2=Late Night City Blues
TTITLE3=A Woman Don't Need
TTITLE4=A Case Of The Blues
TTITLE5=She Takes Good Care Of Me
TTITLE6=When The Blues Come To Call
TTITLE7=Same Old Fool
TTITLE8=Lonely Room
EXTD=
EXTT0=
EXTT1=
EXTT2=
EXTT3=
EXTT4=
EXTT5=
EXTT6=
EXTT7=
EXTT8=
PLAYORDER=
